<svg width="43" height="33" viewBox="0 0 43 33" fill="none" xmlns="http://www.w3.org/2000/svg">
<path d="M6.71875 0C4.93683 0 3.22789 0.724328 1.96788 2.01364C0.707866 3.30295 0 5.05164 0 6.875V26.125C0 27.9484 0.707866 29.697 1.96788 30.9864C3.22789 32.2757 4.93683 33 6.71875 33H36.2812C38.0632 33 39.7721 32.2757 41.0321 30.9864C42.2921 29.697 43 27.9484 43 26.125V6.875C43 5.05164 42.2921 3.30295 41.0321 2.01364C39.7721 0.724328 38.0632 0 36.2812 0H6.71875ZM2.6875 6.875C2.6875 5.78098 3.11222 4.73177 3.86823 3.95818C4.62423 3.1846 5.6496 2.75 6.71875 2.75H36.2812C37.3504 2.75 38.3758 3.1846 39.1318 3.95818C39.8878 4.73177 40.3125 5.78098 40.3125 6.875V26.125C40.3125 27.219 39.8878 28.2682 39.1318 29.0418C38.3758 29.8154 37.3504 30.25 36.2812 30.25H6.71875C5.6496 30.25 4.62423 29.8154 3.86823 29.0418C3.11222 28.2682 2.6875 27.219 2.6875 26.125V6.875ZM6.71875 5.5C6.36237 5.5 6.02058 5.64487 5.76858 5.90273C5.51657 6.16059 5.375 6.51033 5.375 6.875C5.375 7.23967 5.51657 7.58941 5.76858 7.84727C6.02058 8.10513 6.36237 8.25 6.71875 8.25H20.1562C20.5126 8.25 20.8544 8.10513 21.1064 7.84727C21.3584 7.58941 21.5 7.23967 21.5 6.875C21.5 6.51033 21.3584 6.16059 21.1064 5.90273C20.8544 5.64487 20.5126 5.5 20.1562 5.5H6.71875ZM6.71875 11C6.36237 11 6.02058 11.1449 5.76858 11.4027C5.51657 11.6606 5.375 12.0103 5.375 12.375C5.375 12.7397 5.51657 13.0894 5.76858 13.3473C6.02058 13.6051 6.36237 13.75 6.71875 13.75H28.2188C28.5751 13.75 28.9169 13.6051 29.1689 13.3473C29.4209 13.0894 29.5625 12.7397 29.5625 12.375C29.5625 12.0103 29.4209 11.6606 29.1689 11.4027C28.9169 11.1449 28.5751 11 28.2188 11H6.71875ZM8.0625 19.25C7.34973 19.25 6.66615 19.5397 6.16215 20.0555C5.65815 20.5712 5.375 21.2707 5.375 22V24.75C5.375 25.4793 5.65815 26.1788 6.16215 26.6945C6.66615 27.2103 7.34973 27.5 8.0625 27.5H18.8125C19.5253 27.5 20.2088 27.2103 20.7128 26.6945C21.2169 26.1788 21.5 25.4793 21.5 24.75V22C21.5 21.2707 21.2169 20.5712 20.7128 20.0555C20.2088 19.5397 19.5253 19.25 18.8125 19.25H8.0625Z" fill="white"/>
</svg>
